<?xml version="1.0" standalone="no"?>
<!DOCTYPE svg PUBLIC "-//W3C//DTD SVG 20010904//EN"
 "http://www.w3.org/TR/2001/REC-SVG-20010904/DTD/svg10.dtd">
<svg version="1.0" xmlns="http://www.w3.org/2000/svg"
 width="512.000000pt" height="512.000000pt" viewBox="0 0 512.000000 512.000000"
 preserveAspectRatio="xMidYMid meet">

<g transform="translate(0.000000,512.000000) scale(0.100000,-0.100000)"
fill="#000000" stroke="none">
<path d="M1234 4846 c-23 -10 -61 -56 -140 -172 -224 -325 -324 -496 -393
-670 -47 -116 -96 -297 -87 -319 3 -8 17 -22 31 -31 25 -16 27 -16 51 2 15 12
42 59 69 121 81 193 244 467 433 727 36 50 68 94 72 99 4 4 62 -70 131 -165
135 -187 248 -327 304 -377 44 -38 92 -42 130 -8 56 48 26 124 -148 367 -121
170 -354 430 -385 430 -6 0 -16 2 -24 5 -7 2 -27 -2 -44 -9z"/>
<path d="M1093 3948 c-26 -13 -51 -64 -86 -173 -125 -396 -91 -790 99 -1165
159 -313 448 -596 783 -764 653 -329 1518 -356 2246 -69 175 69 303 134 341
174 52 55 36 137 -39 193 -42 31 -97 24 -225 -28 -232 -94 -463 -157 -732
-199 -198 -30 -577 -30 -775 1 -472 74 -834 240 -1099 506 -175 175 -282 342
-350 546 -56 168 -70 294 -62 565 3 127 9 264 12 306 6 69 4 79 -15 98 -23 23
-62 26 -98 9z"/>
</g>
</svg>
